<?xml version="1.0" encoding="UTF-8" standalone="no"?>
<!DOCTYPE svg PUBLIC "-//W3C//DTD SVG 20010904//EN" "http://www.w3.org/TR/2001/REC-SVG-20010904/DTD/svg10.dtd">
<svg version="1.0" xmlns="http://www.w3.org/2000/svg" width="80px" height="80px" viewBox="0 0 1278.000000 1280.000000" preserveAspectRatio="xMidYMid meet">
<metadata>
Created by potrace 1.15, written by Peter Selinger 2001-2017
</metadata>
<g transform="translate(0.000000,1280.000000) scale(0.100000,-0.100000)" fill="#D1B000" stroke="none">
<path d="M5565 12793 c-437 -20 -955 -111 -1410 -249 -859 -261 -1717 -753 -2352 -1348 -51 -47 -95 -86 -97 -86 -3 0 -122 149 -266 330 -144 182 -282 347 -307 368 -24 20 -68 60 -98 88 -74 70 -128 94 -212 94 -114 0 -208 -61 -264 -169 -33 -64 -36 -151 -43 -1161 -4 -481 -11 -1322 -17 -1869 -5 -546 -8 -995 -6 -997 4 -5 -24 -16 1912 766 270 109 738 298 1040 420 303 122 569 233 591 246 53 30 90 74 122 143 33 72 33 152 -2 262 -29 95 -66 146 -130 184 -36 21 -584 207 -858 292 -49 15 -88 30 -88 33 0 14 236 191 377 283 309 200 595 339 927 449 394 131 768 200 1181 217 512 22 983 -45 1478 -210 372 -123 711 -285 1020 -485 54 -35 100 -64 102 -64 3 0 16 18 30 40 l26 41 79 -56 79 -56 34 53 c231 364 837 1361 831 1367 -13 12 -246 160 -334 213 -431 259 -963 489 -1460 632 -642 185 -1242 258 -1885 229z"/>
<path d="M9310 10957 c0 -8 -16 -125 -35 -259 -36 -246 -187 -1284 -295 -2033 -132 -913 -161 -1115 -181 -1249 -30 -199 -29 -257 6 -329 34 -68 78 -110 152 -144 105 -48 201 -40 295 25 24 17 198 172 387 346 190 173 346 314 347 313 2 -1 10 -47 18 -102 98 -641 32 -1341 -189 -1985 -292 -851 -810 -1542 -1558 -2078 -146 -105 -276 -186 -464 -290 l-152 -84 19 -39 c11 -21 20 -42 20 -46 0 -5 -34 -25 -76 -46 -41 -21 -74 -41 -72 -45 6 -15 731 -1357 750 -1389 l19 -33 62 32 c391 197 862 515 1227 826 792 678 1366 1481 1720 2407 269 705 400 1415 400 2175 0 429 -36 796 -117 1190 -20 96 -38 187 -40 201 l-5 26 264 42 c521 83 548 89 623 125 39 18 90 39 115 46 109 30 184 99 215 196 34 107 -4 239 -88 308 -36 29 -3302 1884 -3349 1902 -12 4 -18 1 -18 -9z"/>
<path d="M4 7453 c-4 -49 -4 -214 0 -368 22 -980 241 -1847 696 -2755 431 -860 1128 -1639 1965 -2197 435 -289 894 -512 1450 -704 91 -32 139 -53 137 -61 -2 -7 -73 -195 -159 -418 -173 -450 -183 -480 -183 -564 0 -76 26 -131 88 -186 26 -23 72 -66 103 -96 96 -92 206 -124 311 -89 58 19 3339 1905 3335 1918 -6 19 -2978 2350 -3024 2372 -102 49 -253 26 -329 -50 -14 -14 -47 -36 -73 -49 -54 -28 -116 -92 -137 -142 -28 -68 -18 -148 77 -580 50 -229 88 -418 85 -421 -7 -7 -353 163 -481 237 -626 361 -1171 883 -1561 1497 -363 571 -573 1185 -660 1928 -14 113 -18 231 -18 476 l-1 326 -149 7 c-82 3 -445 6 -807 6 l-657 0 -8 -87z"/>
</g>
</svg>